<svg id="svg2" xmlns="http://www.w3.org/2000/svg" viewBox="0 0 728.28 728.28"><defs><style>.cls-1{fill:#00436c;}.cls-2{fill:none;stroke:#fff;stroke-width:20px;}.cls-3,.cls-4{fill:#fff;}.cls-4{fill-rule:evenodd;}</style></defs><title>white-blue.diamond</title><g id="layer1"><g id="layerBackground"><rect id="GrayBackground" class="cls-1" x="252.59" y="252.52" width="494.83" height="494.87" transform="translate(-342.93 365.05) rotate(-45.07)"/></g><g id="layerOuter"><path id="OuterDiamond" class="cls-2" d="M150,500,500,150,850,500,500,850Z" transform="translate(-135.86 -135.86)"/><circle id="OuterCircle" class="cls-2" cx="364.14" cy="364.14" r="204"/></g><g id="layerCupola"><g id="groupCupolaUpper"><path id="LowerCrossbar" class="cls-3" d="M428.9,471.5h19.8c3.6-16.2,99-16.2,102.6,0h19.8c0-16.2-36-24.3-71.1-24.3s-71.1,8.1-71.1,24.3" transform="translate(-135.86 -135.86)"/><path id="OuterArch" class="cls-3" d="M439.7,516.5h9V467C446,422,464,397.7,500,397.7S554,422,551.3,467v49.5h9V458c2.7-45-24.3-69.3-60.3-69.3S437,413,439.7,458Z" transform="translate(-135.86 -135.86)"/><path id="InnerUprightRight" class="cls-3" d="M525.2,516.5h-4.5V436.4c.9-8.1-9.9-35.1-18.9-39.6l6.3.9c8.1,4.5,18,31.5,17.1,39.6Z" transform="translate(-135.86 -135.86)"/><path id="InnerUprightLeft" class="cls-3" d="M474.8,516.5h4.5V436.4c-.9-8.1,9.9-35.1,18.9-39.6l-6.3.9c-8.1,4.5-18,31.5-17.1,39.6Z" transform="translate(-135.86 -135.86)"/><path id="UpperCrossbar" class="cls-3" d="M448.7,447.2v-5.4a198.31,198.31,0,0,1,102.6,0v5.4a198.31,198.31,0,0,0-102.6,0" transform="translate(-135.86 -135.86)"/><path id="TopPoint" class="cls-3" d="M493.7,395h12.6V375.2h4.5V362.6H489.2v12.6h4.5Z" transform="translate(-135.86 -135.86)"/><path id="BottomRect" class="cls-3" d="M419,515.6v9H581v-9Z" transform="translate(-135.86 -135.86)"/></g><path id="RooflineLower" class="cls-3" d="M365,665l135-56.7L635,665H609.8L500,620,390.2,665Z" transform="translate(-135.86 -135.86)"/><path id="RooflineUpper" class="cls-3" d="M365,640.7v18.9l135-56.7,135,56.7V640.7L500,584Z" transform="translate(-135.86 -135.86)"/><path id="CupolaBase" class="cls-4" d="M423.5,530v81L500,578.6,576.5,611V530Zm9,9v59.2L500,569.6l67.5,28.6V539Z" transform="translate(-135.86 -135.86)"/></g></g></svg>